<svg version="1.1" xmlns="http://www.w3.org/2000/svg" xmlns:xlink="http://www.w3.org/1999/xlink" width="78.46307" height="70.49611" viewBox="0,0,78.46307,70.49611"><g transform="translate(-190.85198,-111.41846)"><g data-paper-data="{&quot;isPaintingLayer&quot;:true}" fill-rule="nonzero" stroke-linejoin="miter" stroke-miterlimit="10" stroke-dasharray="" stroke-dashoffset="0" style="mix-blend-mode: normal"><path d="M266.32362,130.81901c7.79986,16.81031 -1.61266,37.73896 -21.02347,46.74544c-19.41082,9.00649 -41.46943,2.68023 -49.2693,-14.13009c-7.79986,-16.81031 1.61266,-37.73896 21.02347,-46.74544c19.41082,-9.00649 41.46943,-2.68023 49.2693,14.13009z" fill="#faffaf" stroke="#000000" stroke-width="0.5" stroke-linecap="butt"/><path d="M224.8418,165.80699l-3.72156,-7.45531l15.12808,17.9035" fill="none" stroke="none" stroke-width="0" stroke-linecap="round"/><path d="M253.43336,167.4944l-22.15696,7.65722" fill="none" stroke="#000000" stroke-width="4.5" stroke-linecap="round"/><path d="M266.32362,130.81901c7.79986,16.81031 -1.61266,37.73896 -21.02347,46.74544c-19.41082,9.00649 -41.46943,2.68023 -49.2693,-14.13009c-7.79986,-16.81031 1.61266,-37.73896 21.02347,-46.74544c19.41082,-9.00649 41.46943,-2.68023 49.2693,14.13009z" fill="#faffaf" stroke="#000000" stroke-width="0.5" stroke-linecap="butt"/><path d="M261.80906,122.46551l-23.27414,33.83985l-31.45653,-12.95067l-12.26932,15.01621" fill="none" stroke="#000000" stroke-width="0.5" stroke-linecap="round"/><path d="M260.75938,124.48106l-22.50938,30.6448l-32.43572,-12.23399l-11.37385,13.93479" fill="none" stroke="#794b4b" stroke-width="6.5" stroke-linecap="round"/><path d="M194.10198,153.83556l6.6731,-20.67342l8.47424,-9.44126l10.84018,-6.60383l11.99548,-2.41768l14.54618,1.38339l11.2304,5.54533" fill="none" stroke="#794b4b" stroke-width="6.5" stroke-linecap="round"/><path d="M200.14809,143.6845l10.9732,-14.79827l11.9886,-5.82498l24.64548,-1.72855" fill="none" stroke="#794b4b" stroke-width="6.5" stroke-linecap="round"/><path d="M236.76329,118.56262l-19.4266,1.66813" fill="none" stroke="#794b4b" stroke-width="6.5" stroke-linecap="round"/><path d="M248.99708,118.92017l4.68521,7.27054" fill="none" stroke="#794b4b" stroke-width="6.5" stroke-linecap="round"/><path d="M213.80326,131.83936l34.2595,-6.45173" fill="none" stroke="#794b4b" stroke-width="6.5" stroke-linecap="round"/><path d="M234.51131,122.75567l-27.24635,14.21619" fill="none" stroke="#794b4b" stroke-width="6.5" stroke-linecap="round"/><path d="M208.51354,137.96659l41.86851,-8.14584" fill="none" stroke="#794b4b" stroke-width="6.5" stroke-linecap="round"/><path d="M214.60279,140.9128l33.74313,-6.99917" fill="none" stroke="#794b4b" stroke-width="6.5" stroke-linecap="round"/><path d="M243.02512,141.10467l-21.28482,3.31737" fill="none" stroke="#794b4b" stroke-width="6.5" stroke-linecap="round"/><path d="M223.82129,146.07995l16.57364,1.22969" fill="none" stroke="#794b4b" stroke-width="6.5" stroke-linecap="round"/><path d="M237.19484,151.15554l-4.00827,-1.28834" fill="none" stroke="#794b4b" stroke-width="6.5" stroke-linecap="round"/><path d="M257.88398,124.50347l-13.31668,14.83624l-36.37846,2.45034" fill="none" stroke="#794b4b" stroke-width="6.5" stroke-linecap="round"/><path d="M200.35076,167.31626l-4.3689,-23.30652l64.55701,-12.10149l4.3689,23.30652z" fill="#faffaf" stroke="#000000" stroke-width="0" stroke-linecap="butt"/><path d="M234.38675,159.80416l-14.54442,-8.72987" fill="none" stroke="none" stroke-width="0" stroke-linecap="round"/><path d="M224.8418,165.80699l-3.72156,-7.45531l15.12808,17.9035" fill="none" stroke="none" stroke-width="0" stroke-linecap="round"/><path d="M212.41968,179.17882l13.28048,-24.52623" fill="none" stroke="none" stroke-width="0" stroke-linecap="round"/><text transform="translate(200.38319,165.05217) rotate(-8.25271) scale(0.45682,0.45682)" font-size="40" xml:space="preserve" fill="#000000" fill-rule="nonzero" stroke="none" stroke-width="1" stroke-linecap="butt" stroke-linejoin="miter" stroke-miterlimit="10" stroke-dasharray="" stroke-dashoffset="0" font-family="Sans Serif" font-weight="normal" text-anchor="start" style="mix-blend-mode: normal"><tspan x="0" dy="0">gaming</tspan></text></g></g></svg>